<?xml version="1.0"?>
<svg width="826" height="250.00000000000003" xmlns="http://www.w3.org/2000/svg" xmlns:svg="http://www.w3.org/2000/svg" version="1.1">
 <g class="layer">
  <title>Layer 1</title>
  <path d="m473.4,187.5c3.06,11.25 10.82,17.55 21.9,19.32q16.67,2.65 34.19,-4.27q0.42,-0.17 0.42,0.28l0,8.49a0.45,0.43 -10.7 0 1 -0.29,0.41q-19.06,7.03 -37.32,3.86q-16.62,-2.88 -24.24,-16.13q-4.73,-8.24 -5.79,-20.24c-1.07,-12.04 -0.16,-26.05 5.74,-36.24q7.78,-13.41 24.07,-16.24q18.65,-3.25 37.64,4.1a0.28,0.28 0 0 1 0.18,0.26l0.01,8.53q0,0.38 -0.35,0.24q-17.75,-6.85 -33.64,-4.45c-16.37,2.46 -23.02,13.59 -24.26,29.24q-1.02,12.74 1.74,22.84z" fill="#331f2a" id="svg_19"/>
  <path d="m54.18,179.15l0,36.08a0.36,0.36 0 0 1 -0.36,0.36l-15.26,0a0.36,0.36 0 0 1 -0.36,-0.36l0.01,-88a0.36,0.36 0 0 1 0.36,-0.36l56.65,0a0.36,0.36 0 0 1 0.36,0.36l0,13.65a0.36,0.36 0 0 1 -0.36,0.36l-40.68,0a0.36,0.36 0 0 0 -0.36,0.36l0,21.73a0.36,0.36 0 0 0 0.36,0.36l35.05,0a0.36,0.36 0 0 1 0.36,0.36l0,14.37a0.36,0.36 0 0 1 -0.36,0.36l-35.05,0.01a0.36,0.36 0 0 0 -0.36,0.36z" fill="#331f2a" id="svg_20"/>
  <rect fill="#331f2a" height="88.72" id="svg_21" rx="0.42" width="15.96" x="124.21" y="126.87"/>
  <path d="m238.92,191.64l0,-64.47a0.3,0.3 0 0 1 0.3,-0.3l15.39,-0.01a0.3,0.3 0 0 1 0.3,0.3l0,88.13a0.3,0.3 0 0 1 -0.3,0.3l-17.4,0a0.3,0.3 0 0 1 -0.25,-0.13l-45.23,-65.35a0.3,0.3 0 0 0 -0.55,0.17l0,65.01a0.3,0.3 0 0 1 -0.3,0.3l-15.38,0a0.3,0.3 0 0 1 -0.3,-0.3l0,-88.13a0.3,0.3 0 0 1 0.3,-0.3l17.66,0.01a0.3,0.3 0 0 1 0.25,0.13l44.96,64.81a0.3,0.3 0 0 0 0.55,-0.17z" fill="#331f2a" id="svg_22"/>
  <path d="m321.18,136.47l0,78.79a0.33,0.33 0 0 1 -0.33,0.33l-8.86,-0.01a0.33,0.33 0 0 1 -0.33,-0.33l0,-78.78a0.33,0.33 0 0 0 -0.33,-0.33l-30.72,0a0.33,0.33 0 0 1 -0.33,-0.33l0.01,-8.61a0.33,0.33 0 0 1 0.33,-0.33l71.52,0a0.33,0.33 0 0 1 0.33,0.33l0,8.61a0.33,0.33 0 0 1 -0.33,0.33l-30.63,0a0.33,0.33 0 0 0 -0.33,0.33z" fill="#331f2a" id="svg_23"/>
  <path d="m387.85,136.52l-0.01,29.29q0,0.71 0.71,0.71q19.35,0 39.77,0q0.32,0 0.32,0.31q0,0.04 -0.01,8.75q0,0.26 -0.26,0.26l-39.99,0q-0.53,0 -0.53,0.53l-0.01,29.63q0,0.58 0.58,0.58l45.49,0q0.27,0 0.27,0.26l0.01,8.49a0.27,0.26 0 0 1 -0.27,0.26l-55.48,0a0.24,0.24 0 0 1 -0.24,-0.24l0,-88.02a0.47,0.46 0 0 1 0.47,-0.46l55.33,0q0.16,0 0.16,0.15l0.03,8.58a0.29,0.28 0 0 1 -0.29,0.28l-45.42,0q-0.63,0 -0.63,0.64z" fill="#331f2a" id="svg_24"/>
  <path d="m614.25,166.28l0,-39.08a0.33,0.33 0 0 1 0.33,-0.33l8.89,0a0.33,0.33 0 0 1 0.33,0.33l0,88.06a0.33,0.33 0 0 1 -0.33,0.33l-8.89,-0.01a0.33,0.33 0 0 1 -0.33,-0.33l0,-39.08a0.33,0.33 0 0 0 -0.33,-0.33l-46.55,0a0.33,0.33 0 0 0 -0.33,0.33l0,39.09a0.33,0.33 0 0 1 -0.33,0.33l-8.99,0a0.33,0.33 0 0 1 -0.33,-0.33l0,-88.06a0.33,0.33 0 0 1 0.33,-0.33l8.99,0a0.33,0.33 0 0 1 0.33,0.33l-0.01,39.08a0.33,0.33 0 0 0 0.33,0.33l46.56,0a0.33,0.33 0 0 0 0.33,-0.33z" fill="#331f2a" id="svg_25"/>
  <g fill="none" id="svg_1" stroke-width="2">
   <path d="m718.27,13.8q-0.34,3.09 0.27,9.79q4.22,46.93 8.39,93.94a0.35,0.34 -2.5 0 0 0.35,0.32l21.06,0q0.15,0 0.3,-0.06q0.11,-0.06 0.23,-0.06q17.69,-0.24 36.24,0.24" id="svg_2" stroke="#e43770"/>
   <path d="m785.11,117.96l-55.98,23.12" id="svg_3" stroke="#ce3366"/>
   <path d="m729.13,141.08q-39.61,-11.38 -79.37,-22.59q-0.44,-0.12 -1.43,0.01" id="svg_4" stroke="#e43770"/>
   <path d="m786.52,118.16q-1.64,0.08 -1.41,-0.2" id="svg_5" stroke="#cb2059"/>
   <path d="m718.88,223.79q-0.19,-2.38 0.2,-5.41q5.03,-38.59 10.04,-77.31" id="svg_6" stroke="#cb2059"/>
  </g>
  <path d="m718.27,13.8q-0.34,3.09 0.27,9.79q4.22,46.93 8.39,93.94a0.35,0.34 -2.5 0 0 0.35,0.32l21.06,0q0.15,0 0.3,-0.06q0.11,-0.06 0.23,-0.06q17.69,-0.24 36.24,0.24l-55.98,23.12q-39.61,-11.38 -79.37,-22.59q-0.44,-0.12 -1.43,0.01l-0.29,-0.38q-0.22,-0.3 -0.01,-0.61l69.41,-104.3q0.2,-0.3 0.44,-0.03q0.3,0.32 0.39,0.62z" fill="#e74a7d" id="svg_7"/>
  <path d="m718.27,13.8l68.58,103.41q0.21,0.32 -0.04,0.61l-0.29,0.34q-1.64,0.08 -1.41,-0.2q-18.55,-0.48 -36.24,-0.24q-0.12,0 -0.23,0.06q-0.14,0.06 -0.3,0.06l-21.06,0a0.35,0.34 -2.5 0 1 -0.35,-0.32q-4.17,-47 -8.39,-93.94q-0.6,-6.7 -0.27,-9.79z" fill="#e12462" id="svg_8"/>
  <path d="m785.11,117.96q-0.22,0.28 1.41,0.2l-67.64,105.63q-0.19,-2.38 0.2,-5.41q5.03,-38.59 10.04,-77.31l55.98,-23.12z" fill="#b51c4f" id="svg_9"/>
  <path d="m648.33,118.5q0.99,-0.13 1.43,-0.01q39.76,11.21 79.37,22.59q-5.02,38.72 -10.04,77.31q-0.39,3.02 -0.2,5.41q-0.22,0.51 -0.51,0.74q-0.3,0.25 -0.51,-0.08l-69.53,-105.96z" fill="#e12462" id="svg_10"/>
  <path d="m726.97,117.57l2.11,23.34l-79.29,-22.49l-1.48,-0.07l-0.42,-0.7l79.08,-0.07z" fill="#f990b2" id="svg_28"/>
  <path d="m57.74,67.24q6.55,0.98 12.56,-1.83q0.17,-0.08 0.23,0.09l2.35,6.76q0.06,0.18 -0.11,0.26q-8.13,3.86 -17.36,2.45q-12.71,-1.93 -14.97,-15.2c-3.47,-20.4 13.97,-30.74 31.26,-23q0.69,0.31 0.44,1.02l-2.12,5.95q-0.25,0.69 -0.91,0.38q-4.6,-2.17 -9.57,-1.94q-8.31,0.39 -9.95,8.94c-1.18,6.12 0.59,14.97 8.15,16.12z" fill="#7f7f7f" id="svg_11"/>
  <path d="m156.03,57.46a17.66,17.66 0 0 1 -17.66,17.66l-3.36,0a17.66,17.66 0 0 1 -17.66,-17.66l0,-5.32a17.66,17.66 0 0 1 17.66,-17.66l3.36,0a17.66,17.66 0 0 1 17.66,17.66l0,5.32zm-19.41,10.29a12.96,10.55 90.2 0 0 10.6,-12.92a12.96,10.55 90.2 0 0 -10.5,-13a12.96,10.55 90.2 0 0 -10.6,12.92a12.96,10.55 90.2 0 0 10.5,13z" fill="#7f7f7f" id="svg_12"/>
  <path d="m314.03,57.46a17.66,17.66 0 0 1 -17.66,17.66l-3.36,0a17.66,17.66 0 0 1 -17.66,-17.66l0,-5.32a17.66,17.66 0 0 1 17.66,-17.66l3.36,0a17.66,17.66 0 0 1 17.66,17.66l0,5.32zm-19.41,10.29a12.96,10.55 90.2 0 0 10.6,-12.92a12.96,10.55 90.2 0 0 -10.5,-13a12.96,10.55 90.2 0 0 -10.6,12.92a12.96,10.55 90.2 0 0 10.5,13z" fill="#7f7f7f" id="svg_13"/>
  <path d="m479.82,52.83a0.4,0.4 0 0 0 0.07,0.71c2.56,1.01 4.67,2.87 5.4,5.55c2.12,7.76 -2.03,13.72 -9.97,15.23q-8.94,1.7 -20.06,-0.33q-0.55,-0.1 -0.55,-0.66l-0.01,-37.26q0,-0.31 0.3,-0.36q8.38,-1.57 17.43,-0.65c5.05,0.52 10.09,2.86 11.2,8.24q1.29,6.24 -3.81,9.53zm-16.47,-10.58l0.04,7.96a0.38,0.38 0 0 0 0.38,0.38l5.8,-0.03a5.78,4.12 -0.3 0 0 5.76,-4.15l0,-0.48a5.78,4.12 -0.3 0 0 -5.8,-4.09l-5.8,0.03a0.38,0.38 0 0 0 -0.38,0.38zm0.04,15.57l-0.04,9.4a0.49,0.49 0 0 0 0.49,0.49l6.09,0.02a6.88,4.75 0.2 0 0 6.9,-4.73l0,-0.88a6.88,4.75 0.2 0 0 -6.86,-4.77l-6.09,-0.02a0.49,0.49 0 0 0 -0.49,0.49z" fill="#7f7f7f" id="svg_14"/>
  <path d="m214.07,66.96l16.57,0a0.46,0.46 0 0 1 0.46,0.46l0.02,6.71a0.46,0.46 0 0 1 -0.46,0.46l-25.5,0a0.46,0.46 0 0 1 -0.46,-0.46l0.02,-38.58a0.46,0.46 0 0 1 0.46,-0.46l7.96,0a0.46,0.46 0 0 1 0.46,0.46l0.01,30.95a0.46,0.46 0 0 0 0.46,0.46z" fill="#7f7f7f" id="svg_15" transform="matrix(1 0 0 1 0 0)"/>
  <path d="m371.38,49.58l-1.25,24.77a0.25,0.25 0 0 1 -0.25,0.24l-8,0a0.26,0.25 -88.9 0 1 -0.25,-0.27q0.8,-19.81 2.93,-38.66q0.07,-0.57 0.64,-0.57l7.43,0q0.61,0 0.89,0.55q5.48,11.03 9.99,22.16q0.4,0.98 0.8,0q4.6,-11.33 10.03,-22.21q0.25,-0.5 0.8,-0.5l7.02,0q0.64,0 0.71,0.64q2.22,20.25 2.92,38.67q0,0.18 -0.18,0.18l-8.18,0.01q-0.24,0 -0.24,-0.24q-0.3,-12.58 -1.25,-24.71q-0.1,-1.27 -0.6,-0.09l-8.29,19.46a0.96,0.96 0 0 1 -0.88,0.58l-5.01,-0.01q-0.53,0 -0.74,-0.49l-8.38,-19.63q-0.59,-1.37 -0.66,0.12z" fill="#7f7f7f" id="svg_16"/>
  <rect fill="#7f7f7f" height="39.48" id="svg_17" rx="0.53" width="8.86" x="534.72" y="35.11"/>
  <path d="m617.69,66.05l-14.3,0q-0.58,0 -0.76,0.54l-2.64,7.79q-0.07,0.21 -0.3,0.21l-8.71,-0.01q-0.19,0 -0.13,-0.18q6.63,-19.81 15.4,-38.91a0.7,0.68 11.8 0 1 0.63,-0.4l7.51,0q0.56,0 0.8,0.51q8.64,18.86 15.36,38.77q0.07,0.21 -0.16,0.21l-8.96,0.01a0.34,0.33 -9.7 0 1 -0.32,-0.22l-2.61,-7.75q-0.2,-0.57 -0.81,-0.57zm-12.69,-7.5a0.34,0.34 0 0 0 0.32,0.46l10.44,0a0.34,0.34 0 0 0 0.32,-0.46l-5.22,-13.78a0.34,0.34 0 0 0 -0.64,0l-5.22,13.78z" fill="#7f7f7f" id="svg_18"/>
  <path d="m60.28,67.34q6.55,0.98 12.56,-1.83q0.17,-0.08 0.23,0.09l2.35,6.76q0.06,0.18 -0.11,0.26q-8.13,3.86 -17.36,2.45q-12.71,-1.93 -14.97,-15.2c-3.47,-20.4 13.97,-30.74 31.26,-23q0.69,0.31 0.44,1.02l-2.12,5.95q-0.25,0.69 -0.91,0.38q-4.6,-2.17 -9.57,-1.94q-8.31,0.39 -9.95,8.94c-1.18,6.12 0.59,14.97 8.15,16.12z" fill="#7f7f7f" id="svg_45"/>
  <path d="m158.57,57.56a17.66,17.66 0 0 1 -17.66,17.66l-3.36,0a17.66,17.66 0 0 1 -17.66,-17.66l0,-5.32a17.66,17.66 0 0 1 17.66,-17.66l3.36,0a17.66,17.66 0 0 1 17.66,17.66l0,5.32zm-19.41,10.29a12.96,10.55 90.2 0 0 10.6,-12.92a12.96,10.55 90.2 0 0 -10.5,-13a12.96,10.55 90.2 0 0 -10.6,12.92a12.96,10.55 90.2 0 0 10.5,13z" fill="#7f7f7f" id="svg_46"/>
  <path d="m316.57,57.56a17.66,17.66 0 0 1 -17.66,17.66l-3.36,0a17.66,17.66 0 0 1 -17.66,-17.66l0,-5.32a17.66,17.66 0 0 1 17.66,-17.66l3.36,0a17.66,17.66 0 0 1 17.66,17.66l0,5.32zm-19.41,10.29a12.96,10.55 90.2 0 0 10.6,-12.92a12.96,10.55 90.2 0 0 -10.5,-13a12.96,10.55 90.2 0 0 -10.6,12.92a12.96,10.55 90.2 0 0 10.5,13z" fill="#7f7f7f" id="svg_47"/>
  <path d="m482.36,52.93a0.4,0.4 0 0 0 0.07,0.71c2.56,1.01 4.67,2.87 5.4,5.55c2.12,7.76 -2.03,13.72 -9.97,15.23q-8.94,1.7 -20.06,-0.33q-0.55,-0.1 -0.55,-0.66l-0.01,-37.26q0,-0.31 0.3,-0.36q8.38,-1.57 17.43,-0.65c5.05,0.52 10.09,2.86 11.2,8.24q1.29,6.24 -3.81,9.53zm-16.47,-10.58l0.04,7.96a0.38,0.38 0 0 0 0.38,0.38l5.8,-0.03a5.78,4.12 -0.3 0 0 5.76,-4.15l0,-0.48a5.78,4.12 -0.3 0 0 -5.8,-4.09l-5.8,0.03a0.38,0.38 0 0 0 -0.38,0.38zm0.04,15.57l-0.04,9.4a0.49,0.49 0 0 0 0.49,0.49l6.09,0.02a6.88,4.75 0.2 0 0 6.9,-4.73l0,-0.88a6.88,4.75 0.2 0 0 -6.86,-4.77l-6.09,-0.02a0.49,0.49 0 0 0 -0.49,0.49z" fill="#7f7f7f" id="svg_48"/>
  <path d="m216.61,67.06l16.57,0a0.46,0.46 0 0 1 0.46,0.46l0.02,6.71a0.46,0.46 0 0 1 -0.46,0.46l-25.5,0a0.46,0.46 0 0 1 -0.46,-0.46l0.02,-38.58a0.46,0.46 0 0 1 0.46,-0.46l7.96,0a0.46,0.46 0 0 1 0.46,0.46l0.01,30.95a0.46,0.46 0 0 0 0.46,0.46z" fill="#7f7f7f" id="svg_49" transform="matrix(1 0 0 1 0 0)"/>
  <path d="m373.92,49.68l-1.25,24.77a0.25,0.25 0 0 1 -0.25,0.24l-8,0a0.26,0.25 -88.9 0 1 -0.25,-0.27q0.8,-19.81 2.93,-38.66q0.07,-0.57 0.64,-0.57l7.43,0q0.61,0 0.89,0.55q5.48,11.03 9.99,22.16q0.4,0.98 0.8,0q4.6,-11.33 10.03,-22.21q0.25,-0.5 0.8,-0.5l7.02,0q0.64,0 0.71,0.64q2.22,20.25 2.92,38.67q0,0.18 -0.18,0.18l-8.18,0.01q-0.24,0 -0.24,-0.24q-0.3,-12.58 -1.25,-24.71q-0.1,-1.27 -0.6,-0.09l-8.29,19.46a0.96,0.96 0 0 1 -0.88,0.58l-5.01,-0.01q-0.53,0 -0.74,-0.49l-8.38,-19.63q-0.59,-1.37 -0.66,0.12z" fill="#7f7f7f" id="svg_50"/>
  <rect fill="#7f7f7f" height="39.48" id="svg_51" rx="0.53" width="8.86" x="537.26" y="35.21"/>
  <path d="m620.23,66.15l-14.3,0q-0.58,0 -0.76,0.54l-2.64,7.79q-0.07,0.21 -0.3,0.21l-8.71,-0.01q-0.19,0 -0.13,-0.18q6.63,-19.81 15.4,-38.91a0.7,0.68 11.8 0 1 0.63,-0.4l7.51,0q0.56,0 0.8,0.51q8.64,18.86 15.36,38.77q0.07,0.21 -0.16,0.21l-8.96,0.01a0.34,0.33 -9.7 0 1 -0.32,-0.22l-2.61,-7.75q-0.2,-0.57 -0.81,-0.57zm-12.69,-7.5a0.34,0.34 0 0 0 0.32,0.46l10.44,0a0.34,0.34 0 0 0 0.32,-0.46l-5.22,-13.78a0.34,0.34 0 0 0 -0.64,0l-5.22,13.78z" fill="#7f7f7f" id="svg_52"/>
  <path d="m473.19,186.48c3.06,11.25 10.82,17.55 21.9,19.32q16.67,2.65 34.19,-4.27q0.42,-0.17 0.42,0.28l0,8.49a0.45,0.43 -10.7 0 1 -0.29,0.41q-19.06,7.03 -37.32,3.86q-16.62,-2.88 -24.24,-16.13q-4.73,-8.24 -5.79,-20.24c-1.07,-12.04 -0.16,-26.05 5.74,-36.24q7.78,-13.41 24.07,-16.24q18.65,-3.25 37.64,4.1a0.28,0.28 0 0 1 0.18,0.26l0.01,8.53q0,0.38 -0.35,0.24q-17.75,-6.85 -33.64,-4.45c-16.37,2.46 -23.02,13.59 -24.26,29.24q-1.02,12.74 1.74,22.84z" fill="#331f2a" id="svg_53" transform="matrix(1 0 0 1 0 0)"/>
  <path d="m60.04,179.19l0,36.08a0.36,0.36 0 0 1 -0.36,0.36l-15.26,0a0.36,0.36 0 0 1 -0.36,-0.36l0.01,-88a0.36,0.36 0 0 1 0.36,-0.36l56.65,0a0.36,0.36 0 0 1 0.36,0.36l0,13.65a0.36,0.36 0 0 1 -0.36,0.36l-40.68,0a0.36,0.36 0 0 0 -0.36,0.36l0,21.73a0.36,0.36 0 0 0 0.36,0.36l35.05,0a0.36,0.36 0 0 1 0.36,0.36l0,14.37a0.36,0.36 0 0 1 -0.36,0.36l-35.05,0.01a0.36,0.36 0 0 0 -0.36,0.36z" fill="#331f2a" id="svg_54"/>
  <rect fill="#331f2a" height="88.72" id="svg_55" rx="0.42" width="15.96" x="130.07" y="126.91"/>
  <path d="m244.78,191.68l0,-64.47a0.3,0.3 0 0 1 0.3,-0.3l15.39,-0.01a0.3,0.3 0 0 1 0.3,0.3l0,88.13a0.3,0.3 0 0 1 -0.3,0.3l-17.4,0a0.3,0.3 0 0 1 -0.25,-0.13l-45.23,-65.35a0.3,0.3 0 0 0 -0.55,0.17l0,65.01a0.3,0.3 0 0 1 -0.3,0.3l-15.38,0a0.3,0.3 0 0 1 -0.3,-0.3l0,-88.13a0.3,0.3 0 0 1 0.3,-0.3l17.66,0.01a0.3,0.3 0 0 1 0.25,0.13l44.96,64.81a0.3,0.3 0 0 0 0.55,-0.17z" fill="#331f2a" id="svg_56"/>
  <path d="m327.04,136.51l0,78.79a0.33,0.33 0 0 1 -0.33,0.33l-8.86,-0.01a0.33,0.33 0 0 1 -0.33,-0.33l0,-78.78a0.33,0.33 0 0 0 -0.33,-0.33l-30.72,0a0.33,0.33 0 0 1 -0.33,-0.33l0.01,-8.61a0.33,0.33 0 0 1 0.33,-0.33l71.52,0a0.33,0.33 0 0 1 0.33,0.33l0,8.61a0.33,0.33 0 0 1 -0.33,0.33l-30.63,0a0.33,0.33 0 0 0 -0.33,0.33z" fill="#331f2a" id="svg_57"/>
  <path d="m393.71,136.56l-0.01,29.29q0,0.71 0.71,0.71q19.35,0 39.77,0q0.32,0 0.32,0.31q0,0.04 -0.01,8.75q0,0.26 -0.26,0.26l-39.99,0q-0.53,0 -0.53,0.53l-0.01,29.63q0,0.58 0.58,0.58l45.49,0q0.27,0 0.27,0.26l0.01,8.49a0.27,0.26 0 0 1 -0.27,0.26l-55.48,0a0.24,0.24 0 0 1 -0.24,-0.24l0,-88.02a0.47,0.46 0 0 1 0.47,-0.46l55.33,0q0.16,0 0.16,0.15l0.03,8.58a0.29,0.28 0 0 1 -0.29,0.28l-45.42,0q-0.63,0 -0.63,0.64z" fill="#331f2a" id="svg_58"/>
  <path d="m617.47,166.32l0,-39.08a0.33,0.33 0 0 1 0.33,-0.33l8.89,0a0.33,0.33 0 0 1 0.33,0.33l0,88.06a0.33,0.33 0 0 1 -0.33,0.33l-8.89,-0.01a0.33,0.33 0 0 1 -0.33,-0.33l0,-39.08a0.33,0.33 0 0 0 -0.33,-0.33l-46.55,0a0.33,0.33 0 0 0 -0.33,0.33l0,39.09a0.33,0.33 0 0 1 -0.33,0.33l-8.99,0a0.33,0.33 0 0 1 -0.33,-0.33l0,-88.06a0.33,0.33 0 0 1 0.33,-0.33l8.99,0a0.33,0.33 0 0 1 0.33,0.33l-0.01,39.08a0.33,0.33 0 0 0 0.33,0.33l46.56,0a0.33,0.33 0 0 0 0.33,-0.33z" fill="#331f2a" id="svg_59"/>
 </g>

</svg>