<?xml version="1.0" encoding="UTF-8" standalone="no"?>
<!DOCTYPE svg PUBLIC "-//W3C//DTD SVG 1.1//EN" "http://www.w3.org/Graphics/SVG/1.1/DTD/svg11.dtd">
<svg xmlns="http://www.w3.org/2000/svg" version="1.1" viewBox="0.00 0.00 878.00 284.00">
<g stroke-width="2.00" fill="none" stroke-linecap="butt">
<path stroke="#729355" vector-effect="non-scaling-stroke" d="
  M 309.50 134.36
  Q 309.72 134.61 309.67 134.99
  Q 306.60 158.86 309.54 182.75
  Q 309.59 183.16 309.22 183.44"
/>
<path stroke="#729355" vector-effect="non-scaling-stroke" d="
  M 36.11 183.16
  Q 35.89 183.30 35.95 182.77
  Q 38.88 158.28 35.64 134.28"
/>
<path stroke="#729355" vector-effect="non-scaling-stroke" d="
  M 22.22 175.81
  C 26.80 168.41 26.05 155.66 24.39 147.85
  Q 24.14 146.66 22.38 142.73"
/>
<path stroke="#729355" vector-effect="non-scaling-stroke" d="
  M 322.81 143.47
  Q 317.80 155.86 320.86 170.48
  Q 321.48 173.43 323.55 175.67"
/>
<path stroke="#bfdfa0" vector-effect="non-scaling-stroke" d="
  M 111.65 52.91
  L 111.65 66.43
  A 0.64 0.64 0.0 0 0 112.29 67.07
  L 226.22 67.07
  A 7.63 7.11 0.0 0 0 233.85 59.96
  L 233.85 59.38
  A 7.63 7.11 -0.0 0 0 226.22 52.27
  L 112.29 52.27
  A 0.64 0.64 0.0 0 0 111.65 52.91"
/>
<path stroke="#b4d494" vector-effect="non-scaling-stroke" d="
  M 78.87 155.35
  Q 78.18 175.19 78.62 183.10
  C 79.74 203.06 90.50 221.07 108.86 229.20
  Q 117.53 233.03 125.24 233.23
  Q 140.17 233.61 187.72 233.14"
/>
<path stroke="#bfdfa0" vector-effect="non-scaling-stroke" d="
  M 187.72 233.14
  L 261.52 233.20
  A 0.53 0.53 0.0 0 0 262.05 232.67
  Q 261.94 179.99 262.10 131.29
  Q 262.14 121.19 260.65 115.08
  C 255.37 93.31 236.35 75.89 213.15 75.89
  Q 176.64 75.89 135.07 75.75
  C 123.14 75.71 112.76 76.85 103.53 82.82
  Q 79.97 98.02 78.76 126.50
  Q 78.49 132.75 78.87 155.35"
/>
<path stroke="#f4f4f3" vector-effect="non-scaling-stroke" d="
  M 187.72 233.14
  L 186.18 232.85
  Q 185.67 232.75 185.44 232.28
  C 185.08 231.53 184.69 231.14 183.86 230.96
  C 176.77 229.39 169.29 227.90 162.82 225.88
  Q 108.72 208.95 82.14 158.35
  Q 80.76 155.72 78.87 155.35"
/>
<path stroke="#a8a8a8" vector-effect="non-scaling-stroke" d="
  M 139.1200 163.0700
  A 21.40 8.49 90.0 0 0 147.6100 141.6700
  A 21.40 8.49 90.0 0 0 139.1200 120.2700
  A 21.40 8.49 90.0 0 0 130.6300 141.6700
  A 21.40 8.49 90.0 0 0 139.1200 163.0700"
/>
<path stroke="#a8a8a8" vector-effect="non-scaling-stroke" d="
  M 206.4100 163.0500
  A 21.41 8.49 90.0 0 0 214.9000 141.6400
  A 21.41 8.49 90.0 0 0 206.4100 120.2300
  A 21.41 8.49 90.0 0 0 197.9200 141.6400
  A 21.41 8.49 90.0 0 0 206.4100 163.0500"
/>
</g>
<path fill="#7ebf41" d="
  M 309.50 134.36
  Q 309.72 134.61 309.67 134.99
  Q 306.60 158.86 309.54 182.75
  Q 309.59 183.16 309.22 183.44
  C 308.76 187.04 308.64 190.93 308.07 194.16
  C 302.96 223.19 280.51 246.68 251.21 251.06
  Q 244.90 252.01 232.07 251.97
  Q 169.61 251.81 104.54 251.89
  C 69.72 251.93 42.47 225.95 37.10 192.23
  Q 36.39 187.78 36.11 183.16
  Q 35.89 183.30 35.95 182.77
  Q 38.88 158.28 35.64 134.28
  Q 36.19 125.66 36.30 108.25
  Q 36.39 94.99 42.27 81.54
  Q 53.58 55.71 79.09 44.72
  C 88.23 40.78 97.48 39.76 107.87 39.77
  Q 178.24 39.84 242.57 39.92
  C 274.65 39.96 300.83 64.38 307.61 95.14
  Q 309.05 101.69 309.06 114.32
  Q 309.07 125.13 309.05 133.49
  Q 309.05 134.10 309.50 134.36
  Z
  M 111.65 52.91
  L 111.65 66.43
  A 0.64 0.64 0.0 0 0 112.29 67.07
  L 226.22 67.07
  A 7.63 7.11 0.0 0 0 233.85 59.96
  L 233.85 59.38
  A 7.63 7.11 -0.0 0 0 226.22 52.27
  L 112.29 52.27
  A 0.64 0.64 0.0 0 0 111.65 52.91
  Z
  M 78.87 155.35
  Q 78.18 175.19 78.62 183.10
  C 79.74 203.06 90.50 221.07 108.86 229.20
  Q 117.53 233.03 125.24 233.23
  Q 140.17 233.61 187.72 233.14
  L 261.52 233.20
  A 0.53 0.53 0.0 0 0 262.05 232.67
  Q 261.94 179.99 262.10 131.29
  Q 262.14 121.19 260.65 115.08
  C 255.37 93.31 236.35 75.89 213.15 75.89
  Q 176.64 75.89 135.07 75.75
  C 123.14 75.71 112.76 76.85 103.53 82.82
  Q 79.97 98.02 78.76 126.50
  Q 78.49 132.75 78.87 155.35
  Z"
/>
<path fill="#ffffff" d="
  M 111.65 52.91
  A 0.64 0.64 0.0 0 1 112.29 52.27
  L 226.22 52.27
  A 7.63 7.11 -0.0 0 1 233.85 59.38
  L 233.85 59.96
  A 7.63 7.11 -0.0 0 1 226.22 67.07
  L 112.29 67.07
  A 0.64 0.64 0.0 0 1 111.65 66.43
  L 111.65 52.91
  Z"
/>
<circle fill="#515151" cx="818.27" cy="86.41" r="14.73"/>
<path fill="#ffffff" d="
  M 187.72 233.14
  L 186.18 232.85
  Q 185.67 232.75 185.44 232.28
  C 185.08 231.53 184.69 231.14 183.86 230.96
  C 176.77 229.39 169.29 227.90 162.82 225.88
  Q 108.72 208.95 82.14 158.35
  Q 80.76 155.72 78.87 155.35
  Q 78.49 132.75 78.76 126.50
  Q 79.97 98.02 103.53 82.82
  C 112.76 76.85 123.14 75.71 135.07 75.75
  Q 176.64 75.89 213.15 75.89
  C 236.35 75.89 255.37 93.31 260.65 115.08
  Q 262.14 121.19 262.10 131.29
  Q 261.94 179.99 262.05 232.67
  A 0.53 0.53 0.0 0 1 261.52 233.20
  L 187.72 233.14
  Z
  M 139.1200 163.0700
  A 21.40 8.49 90.0 0 0 147.6100 141.6700
  A 21.40 8.49 90.0 0 0 139.1200 120.2700
  A 21.40 8.49 90.0 0 0 130.6300 141.6700
  A 21.40 8.49 90.0 0 0 139.1200 163.0700
  Z
  M 206.4100 163.0500
  A 21.41 8.49 90.0 0 0 214.9000 141.6400
  A 21.41 8.49 90.0 0 0 206.4100 120.2300
  A 21.41 8.49 90.0 0 0 197.9200 141.6400
  A 21.41 8.49 90.0 0 0 206.4100 163.0500
  Z"
/>
<path fill="#7ebf41" d="
  M 718.29 188.46
  L 718.30 212.66
  A 0.34 0.34 0.0 0 1 717.96 213.00
  L 692.09 213.01
  A 0.34 0.34 0.0 0 1 691.75 212.67
  L 691.75 79.16
  A 0.34 0.34 0.0 0 1 692.09 78.82
  L 717.95 78.82
  A 0.34 0.34 0.0 0 1 718.29 79.16
  L 718.29 153.87
  A 0.34 0.34 0.0 0 0 718.87 154.11
  L 757.03 115.71
  A 0.34 0.34 0.0 0 1 757.27 115.61
  L 787.99 115.68
  A 0.34 0.34 0.0 0 1 788.23 116.25
  L 750.89 156.71
  A 0.34 0.34 0.0 0 0 750.87 157.15
  L 791.77 212.45
  A 0.34 0.34 0.0 0 1 791.50 212.99
  L 760.10 213.01
  A 0.34 0.34 0.0 0 1 759.83 212.88
  L 731.33 175.25
  A 0.34 0.34 0.0 0 0 730.81 175.22
  L 718.38 188.22
  A 0.34 0.34 0.0 0 0 718.29 188.46
  Z"
/>
<path fill="#515151" d="
  M 387.75 178.80
  L 387.76 212.49
  Q 387.76 212.99 387.26 212.99
  L 360.56 212.97
  A 0.41 0.41 0.0 0 1 360.15 212.56
  L 360.12 87.04
  Q 360.12 86.49 360.68 86.49
  Q 386.86 86.49 413.63 86.49
  C 426.13 86.50 439.40 90.11 448.86 98.21
  C 461.63 109.13 465.47 126.49 462.33 142.64
  Q 458.65 161.65 441.85 171.12
  C 431.85 176.76 420.26 178.21 408.78 178.22
  Q 397.98 178.23 388.34 178.21
  Q 387.75 178.21 387.75 178.80
  Z
  M 387.79 110.49
  L 387.71 153.97
  A 0.22 0.22 0.0 0 0 387.93 154.19
  L 413.40 154.23
  A 22.03 20.17 0.1 0 0 435.47 134.10
  L 435.47 130.52
  A 22.03 20.17 0.1 0 0 413.48 110.31
  L 388.01 110.27
  A 0.22 0.22 0.0 0 0 387.79 110.49
  Z"
/>
<path fill="#7ebf41" d="
  M 573.53 174.68
  C 563.78 227.54 485.75 227.86 475.11 175.49
  C 470.97 155.14 478.01 134.03 495.42 122.48
  C 508.00 114.13 524.37 112.28 538.81 116.07
  C 565.28 123.02 578.30 148.78 573.53 174.68
  Z
  M 526.84 137.61
  Q 508.96 136.47 502.70 153.21
  C 498.26 165.07 501.47 182.98 514.28 188.98
  Q 519.67 191.50 524.95 191.20
  C 544.41 190.09 550.72 170.95 546.17 154.34
  C 543.74 145.44 536.20 138.20 526.84 137.61
  Z"
/>
<path fill="#515151" d="
  M 640.07 190.88
  C 647.44 189.74 652.86 184.85 656.41 178.35
  Q 656.68 177.84 657.18 178.13
  L 676.91 189.59
  Q 677.36 189.84 677.14 190.31
  Q 668.16 209.25 646.97 213.41
  Q 635.58 215.64 624.54 213.28
  C 598.77 207.77 583.81 186.66 585.41 160.80
  C 587.28 130.66 611.22 112.43 640.60 114.42
  C 656.82 115.52 670.57 123.54 677.06 138.52
  Q 677.28 139.02 676.81 139.30
  L 657.12 150.57
  Q 656.63 150.85 656.37 150.36
  C 651.61 141.34 643.07 136.22 632.87 137.63
  C 618.03 139.67 611.47 152.57 612.24 166.63
  C 613.09 181.95 624.11 193.36 640.07 190.88
  Z"
/>
<rect fill="#515151" x="804.73" y="115.24" width="26.76" height="97.74" rx="0.28"/>
<path fill="#666768" d="
  M 35.64 134.28
  Q 38.88 158.28 35.95 182.77
  Q 35.89 183.30 36.11 183.16
  Q 35.56 183.48 35.47 183.99
  Q 34.43 189.75 32.43 195.54
  Q 31.84 197.28 30.69 198.43
  A 1.92 1.92 0.0 0 1 27.73 198.14
  Q 26.10 195.67 25.34 192.74
  Q 23.15 184.26 22.22 175.81
  C 26.80 168.41 26.05 155.66 24.39 147.85
  Q 24.14 146.66 22.38 142.73
  C 23.39 134.27 23.96 128.91 26.57 122.56
  Q 27.42 120.49 28.48 120.08
  A 2.59 2.59 0.0 0 1 31.84 121.62
  Q 34.00 127.59 35.64 134.28
  Z"
/>
<path fill="#666768" d="
  M 322.81 143.47
  Q 317.80 155.86 320.86 170.48
  Q 321.48 173.43 323.55 175.67
  Q 321.85 185.44 319.09 195.48
  C 318.83 196.41 318.03 197.50 317.43 198.28
  A 1.81 1.80 43.9 0 1 314.62 198.33
  Q 313.16 196.58 312.58 194.48
  Q 311.21 189.54 310.05 184.49
  Q 309.81 183.47 309.22 183.44
  Q 309.59 183.16 309.54 182.75
  Q 306.60 158.86 309.67 134.99
  Q 309.72 134.61 309.50 134.36
  Q 311.09 129.32 312.50 124.25
  Q 313.12 122.04 314.66 120.36
  A 1.49 1.47 -70.2 0 1 315.64 119.89
  Q 317.56 119.78 318.49 121.90
  Q 319.95 125.27 320.62 128.28
  Q 322.38 136.21 322.81 143.47
  Z"
/>
<ellipse fill="#515151" cx="0.00" cy="0.00" transform="translate(139.12,141.67) rotate(90.0)" rx="21.40" ry="8.49"/>
<ellipse fill="#515151" cx="0.00" cy="0.00" transform="translate(206.41,141.64) rotate(90.0)" rx="21.41" ry="8.49"/>
<path fill="#7ebf41" d="
  M 22.38 142.73
  Q 24.14 146.66 24.39 147.85
  C 26.05 155.66 26.80 168.41 22.22 175.81
  Q 19.12 173.11 18.51 168.24
  Q 17.07 156.78 19.28 146.84
  Q 19.62 145.27 22.38 142.73
  Z"
/>
<path fill="#7ebf41" d="
  M 322.81 143.47
  Q 325.57 144.67 326.36 148.13
  Q 330.00 163.95 323.55 175.67
  Q 321.48 173.43 320.86 170.48
  Q 317.80 155.86 322.81 143.47
  Z"
/>
<path fill="#e9e9e7" d="
  M 78.87 155.35
  Q 80.76 155.72 82.14 158.35
  Q 108.72 208.95 162.82 225.88
  C 169.29 227.90 176.77 229.39 183.86 230.96
  C 184.69 231.14 185.08 231.53 185.44 232.28
  Q 185.67 232.75 186.18 232.85
  L 187.72 233.14
  Q 140.17 233.61 125.24 233.23
  Q 117.53 233.03 108.86 229.20
  C 90.50 221.07 79.74 203.06 78.62 183.10
  Q 78.18 175.19 78.87 155.35
  Z"
/>
</svg>
