<svg xmlns="http://www.w3.org/2000/svg" viewBox="0 0 500 500"><g id="freepik--shopping-cart--inject-61"><path d="M269.45,114.31a48.53,48.53,0,0,0-32.26,31.74" style="fill:none;stroke:#263238;stroke-miterlimit:10"></path><path d="M293.48,113.36a48.38,48.38,0,0,0-10.14-1.07,49.29,49.29,0,0,0-6.81.48" style="fill:none;stroke:#263238;stroke-miterlimit:10"></path><path d="M329.57,175.08a48.48,48.48,0,0,0-30.3-60.1" style="fill:none;stroke:#263238;stroke-miterlimit:10"></path><path d="M325.1,185.19a47.89,47.89,0,0,0,3.43-7.1" style="fill:none;stroke:#263238;stroke-miterlimit:10"></path><path d="M263.08,204.68a48.45,48.45,0,0,0,53.53-8.82" style="fill:none;stroke:#263238;stroke-miterlimit:10"></path><path d="M255.41,200.24a51,51,0,0,0,4.44,2.8" style="fill:none;stroke:#263238;stroke-miterlimit:10"></path><path d="M235.55,153A48.41,48.41,0,0,0,252,197.59" style="fill:none;stroke:#263238;stroke-miterlimit:10"></path><circle cx="283.34" cy="160.7" r="43.8" style="fill:#fff;stroke:#263238;stroke-miterlimit:10"></circle><path d="M310.27,189.76H261.53a2.79,2.79,0,0,1-2.76-2.39l-8.66-56.44H239.27a2.78,2.78,0,0,1,0-5.56h13.25a2.78,2.78,0,0,1,2.75,2.39l8.67,56.44h46.33a2.78,2.78,0,1,1,0,5.56Z" style="fill:#fff;stroke:#263238;stroke-linecap:round;stroke-linejoin:round"></path><rect x="232.47" y="124.66" width="11.23" height="7.08" rx="3.34" style="fill:#263238;stroke:#263238;stroke-linecap:round;stroke-linejoin:round"></rect><polygon points="257.36 178.03 262.79 178.03 262.17 174.06 256.73 174.06 257.36 178.03" style="fill:#263238;stroke:#263238;stroke-linecap:round;stroke-linejoin:round"></polygon><polygon points="309.29 175.31 256.15 175.31 251.46 138.75 313.98 138.75 309.29 175.31" style="fill:#4ADE80;stroke:#263238;stroke-linecap:round;stroke-linejoin:round"></polygon><path d="M269.41,171.33h0a2.66,2.66,0,0,1-2.66-2.66V150.24a2.67,2.67,0,0,1,2.66-2.67h0a2.67,2.67,0,0,1,2.66,2.67v18.43A2.66,2.66,0,0,1,269.41,171.33Z" style="fill:#fff;stroke:#263238;stroke-linecap:round;stroke-linejoin:round"></path><path d="M278.83,171.33h0a2.66,2.66,0,0,1-2.66-2.66V150.24a2.67,2.67,0,0,1,2.66-2.67h0a2.67,2.67,0,0,1,2.66,2.67v18.43A2.66,2.66,0,0,1,278.83,171.33Z" style="fill:#fff;stroke:#263238;stroke-linecap:round;stroke-linejoin:round"></path><path d="M288.25,171.33h0a2.66,2.66,0,0,1-2.66-2.66V150.24a2.67,2.67,0,0,1,2.66-2.67h0a2.67,2.67,0,0,1,2.66,2.67v18.43A2.66,2.66,0,0,1,288.25,171.33Z" style="fill:#fff;stroke:#263238;stroke-linecap:round;stroke-linejoin:round"></path><path d="M297.67,171.33h0a2.66,2.66,0,0,1-2.66-2.66V150.24a2.67,2.67,0,0,1,2.66-2.67h0a2.67,2.67,0,0,1,2.66,2.67v18.43A2.66,2.66,0,0,1,297.67,171.33Z" style="fill:#fff;stroke:#263238;stroke-linecap:round;stroke-linejoin:round"></path><circle cx="273.01" cy="189.5" r="6.55" style="fill:#263238;stroke:#263238;stroke-linecap:round;stroke-linejoin:round"></circle><circle cx="273.01" cy="189.5" r="2.81" style="fill:#fff;stroke:#263238;stroke-linecap:round;stroke-linejoin:round"></circle><circle cx="295.18" cy="189.5" r="6.55" style="fill:#263238;stroke:#263238;stroke-linecap:round;stroke-linejoin:round"></circle><path d="M298,189.5a2.81,2.81,0,1,0-2.81,2.81A2.8,2.8,0,0,0,298,189.5Z" style="fill:#fff;stroke:#263238;stroke-linecap:round;stroke-linejoin:round"></path><line x1="306.96" y1="144.71" x2="312.74" y2="144.71" style="fill:none;stroke:#263238;stroke-linecap:round;stroke-linejoin:round"></line><line x1="299.72" y1="144.71" x2="303.82" y2="144.71" style="fill:none;stroke:#263238;stroke-linecap:round;stroke-linejoin:round"></line><line x1="252.94" y1="144.71" x2="296.58" y2="144.71" style="fill:none;stroke:#263238;stroke-linecap:round;stroke-linejoin:round"></line><line x1="283.34" y1="204.5" x2="283.34" y2="255.99" style="fill:#fff;stroke:#263238;stroke-miterlimit:10"></line><circle cx="283.34" cy="255.99" r="2.79" style="fill:#263238;stroke:#263238;stroke-linecap:round;stroke-linejoin:round"></circle><circle cx="314.67" cy="142.23" r="12.5" style="fill:#4ADE80"></circle><path d="M314.67,156.23a14,14,0,1,1,14-14A14,14,0,0,1,314.67,156.23Zm0-25a11,11,0,1,0,11,11A11,11,0,0,0,314.67,131.23Z" style="fill:#263238"></path><path d="M315.49,146.79h-.11a1.48,1.48,0,0,1-1.18-.72L309.38,138a1.5,1.5,0,1,1,2.57-1.54l3.72,6.21L326,129.79a1.5,1.5,0,0,1,2.34,1.88l-11.68,14.56A1.53,1.53,0,0,1,315.49,146.79Z" style="fill:#fff"></path></g></svg>